<?xml version="1.0" encoding="utf-8"?>
<!-- Generator: Adobe Illustrator 16.0.3, SVG Export Plug-In . SVG Version: 6.00 Build 0)  -->
<!DOCTYPE svg PUBLIC "-//W3C//DTD SVG 1.1//EN" "http://www.w3.org/Graphics/SVG/1.1/DTD/svg11.dtd">
<svg version="1.1" id="Layer_1" xmlns="http://www.w3.org/2000/svg" xmlns:xlink="http://www.w3.org/1999/xlink" x="0px" y="0px"
	 width="175px" height="175px" viewBox="150 280 310 200" enable-background="new 0 0 175 175" xml:space="preserve">
<g>
	<path fill-rule="evenodd" clip-rule="evenodd" fill="#00ABC4" d="M241.901,369.024c-0.037,7.303-5.709,10.792-10.769,7.747
		c-16.781-10.101-33.477-20.342-50.19-30.553c-3.087-1.886-4.571-4.593-2.635-7.965c2.037-3.547,5.1-3.705,8.55-1.785
		c16.962,9.437,33.986,18.762,50.888,28.304C239.68,365.865,240.99,368.064,241.901,369.024z"/>
	<path fill-rule="evenodd" clip-rule="evenodd" fill="#00ABC4" d="M375.347,378.684c-1.58-1.833-4.337-3.693-4.89-6.067
		c-0.5-2.147,0.668-6.143,2.366-7.118c17.442-10.016,35.124-19.62,52.792-29.239c3.039-1.654,6.08-1.004,7.73,2.115
		c1.583,2.994,0.825,5.881-2.245,7.749c-17.052,10.374-34.112,20.731-51.198,31.048
		C378.948,377.747,377.742,377.906,375.347,378.684z"/>
	<path fill-rule="evenodd" clip-rule="evenodd" fill="#00ABC4" d="M182.319,488.79c-1.525-1.483-4.139-2.867-4.495-4.69
		c-0.37-1.899,0.863-4.906,2.417-6.219c3.132-2.645,6.946-4.489,10.499-6.629c12.928-7.786,25.858-15.57,38.802-23.33
		c5.548-3.326,8.644-2.775,11.216,1.901c2.323,4.224,1.258,6.916-4.076,9.85c-16.271,8.946-32.557,17.863-48.856,26.757
		C186.403,487.206,184.838,487.721,182.319,488.79z"/>
	<path fill-rule="evenodd" clip-rule="evenodd" fill="#00ABC4" d="M433.984,480.999c0.034,6.216-4.127,8.493-8.902,6.02
		c-7.672-3.976-15.216-8.198-22.809-12.326c-9.343-5.081-18.694-10.146-28.014-15.271c-4.824-2.651-5.771-5.76-3.232-10.105
		c2.387-4.088,5.361-4.689,10.121-1.844c16.271,9.724,32.544,19.445,48.722,29.322C431.779,477.961,433.107,480.079,433.984,480.999
		z"/>
	<path fill-rule="evenodd" clip-rule="evenodd" fill="#00ABC4" d="M300.047,293.319c0-9.65,0.071-19.301-0.035-28.95
		c-0.043-3.932,1.421-6.748,5.47-6.854c4.053-0.106,5.659,2.606,5.754,6.561c0.463,19.302,1.074,38.6,1.528,57.901
		c0.121,5.146-2.346,7.583-7.107,7.563c-4.802-0.021-6.676-2.193-6.678-7.753c-0.003-9.488-0.001-18.977-0.001-28.466
		C299.335,293.32,299.691,293.319,300.047,293.319z"/>
	<path fill-rule="evenodd" clip-rule="evenodd" fill="#00ABC4" d="M181.539,417.613c-5.496,0-10.993,0.076-16.487-0.026
		c-3.706-0.069-6.814-1.521-6.795-5.689c0.02-4.375,3.079-5.758,7.113-5.83c10.49-0.188,20.979-0.471,31.466-0.806
		c3.999-0.127,6.912,1.126,7.658,5.396c0.741,4.237-1.636,7.205-5.966,7.302c-5.661,0.126-11.326,0.031-16.989,0.031
		C181.539,417.865,181.539,417.739,181.539,417.613z"/>
	<path fill-rule="evenodd" clip-rule="evenodd" fill="#00ABC4" d="M297.91,477.436c-6.255,0-12.044,0.037-17.831-0.047
		c-0.729-0.01-1.847-0.468-2.115-1.034c-4.685-9.933-13.311-16.669-20.04-24.938c-11.52-14.158-18.167-30.041-17.627-48.709
		c0.8-27.604,21.921-53.597,49.448-60.259c36.532-8.841,72.356,13.463,80.221,50.201c4.237,19.792-1.039,37.63-12.555,53.789
		c-3.344,4.691-7.598,8.723-11.223,13.227c-4.093,5.083-8.059,10.279-11.836,15.6c-1.064,1.5-1.932,2.259-3.816,2.217
		c-5.457-0.125-10.918-0.045-16.845-0.045c1.542-4.79,2.977-9.303,4.448-13.803c5.751-17.584,11.514-35.163,17.271-52.744
		c0.17-0.518,0.331-1.037,0.493-1.557c0.62-1.988,0.511-3.876-1.739-4.582c-2.151-0.675-3.42,0.509-4.105,2.631
		c-3.414,10.568-6.906,21.109-10.367,31.662c-3.903,11.896-7.775,23.805-11.756,35.674c-0.345,1.025-1.411,1.809-2.142,2.705
		c-0.758-0.881-1.884-1.64-2.221-2.659c-7.31-22.121-14.505-44.28-21.83-66.396c-0.459-1.388-1.541-3.103-2.764-3.597
		c-2.532-1.022-4.263,1.611-3.222,4.812c3.804,11.7,7.673,23.379,11.494,35.073C290.767,455.408,294.25,466.173,297.91,477.436z"/>
	<path fill-rule="evenodd" clip-rule="evenodd" fill="#00ABC4" d="M305.806,520.107c-7.53,0-15.061,0.018-22.591-0.006
		c-3.82-0.014-6.123-1.914-6.047-4.895c0.072-2.838,2.321-4.686,5.963-4.693c15.061-0.03,30.121-0.028,45.182-0.003
		c4.004,0.007,5.975,1.714,5.91,4.933c-0.063,3.045-2.016,4.644-5.826,4.656C320.866,520.126,313.336,520.107,305.806,520.107z"/>
	<path fill-rule="evenodd" clip-rule="evenodd" fill="#00ABC4" d="M305.947,482.144c7.545-0.001,15.091-0.02,22.637,0.008
		c3.772,0.014,5.676,1.675,5.641,4.804c-0.033,3.01-1.828,4.633-5.496,4.644c-15.311,0.045-30.62,0.05-45.93,0.007
		c-3.439-0.009-5.588-1.916-5.634-4.672c-0.048-2.842,2.245-4.77,5.817-4.781C290.637,482.125,298.292,482.145,305.947,482.144z"/>
	<path fill-rule="evenodd" clip-rule="evenodd" fill="#00ABC4" d="M305.938,496.477c7.542,0,15.083-0.019,22.624,0.008
		c3.965,0.014,5.709,1.5,5.662,4.702c-0.045,3.052-1.789,4.536-5.502,4.541c-15.301,0.019-30.604,0.017-45.905,0.001
		c-3.42-0.004-5.574-1.783-5.639-4.546c-0.066-2.845,2.162-4.688,5.808-4.699C290.637,496.459,298.288,496.476,305.938,496.477z"/>
	<path fill-rule="evenodd" clip-rule="evenodd" fill="#00ABC4" d="M288.292,524.929c7.752,0,14.824,0,21.896,0
		c4.121,0,8.243,0,13.178,0c-4.261,5.597-9.136,8.497-15.386,9.036C299.995,534.652,293.566,531.842,288.292,524.929z"/>
	<path fill-rule="evenodd" clip-rule="evenodd" fill="#00ABC4" d="M250.46,325.103c-0.86-0.728-3.049-1.806-4.063-3.563
		c-5.544-9.612-10.791-19.396-16.16-29.107c-1.79-3.237-1.556-6.17,1.654-8.223c3.333-2.132,6.115-0.79,8.006,2.277
		c6,9.735,12.012,19.467,17.758,29.353C260.225,320.262,257.043,324.998,250.46,325.103z"/>
	<path fill-rule="evenodd" clip-rule="evenodd" fill="#00ABC4" d="M429.498,418.017c-5.322,0-10.646-0.049-15.969,0.017
		c-3.998,0.048-6.25-1.658-6.477-5.803c-0.236-4.325,1.865-6.844,6.057-6.818c11.641,0.071,23.282,0.352,34.915,0.778
		c3.21,0.118,5.632,2.363,4.896,5.571c-0.476,2.07-2.776,5.085-4.506,5.261c-6.249,0.637-12.602,0.251-18.915,0.251
		C429.499,417.521,429.498,417.769,429.498,418.017z"/>
	<path fill-rule="evenodd" clip-rule="evenodd" fill="#00ABC4" d="M382.805,287.957c-0.991,2.514-1.444,4.114-2.215,5.543
		c-4.895,9.068-9.838,18.111-14.807,27.139c-2.542,4.616-5.313,5.615-9.256,3.473c-3.971-2.157-4.387-4.725-1.575-9.51
		c5.472-9.316,10.75-18.754,16.547-27.861c1.142-1.794,4.326-3.287,6.451-3.146C379.69,283.71,381.256,286.463,382.805,287.957z"/>
</g>
</svg>
