<?xml version="1.0" encoding="utf-8"?>
<!-- Generator: Adobe Illustrator 16.0.3, SVG Export Plug-In . SVG Version: 6.00 Build 0)  -->
<!DOCTYPE svg PUBLIC "-//W3C//DTD SVG 1.1//EN" "http://www.w3.org/Graphics/SVG/1.1/DTD/svg11.dtd">
<svg version="1.1" id="Layer_1" xmlns="http://www.w3.org/2000/svg" xmlns:xlink="http://www.w3.org/1999/xlink" x="0px" y="0px"
	 width="175px" height="175px" viewBox="220 270 175 175" enable-background="new 0 0 175 175" xml:space="preserve">
<path fill="#00ABC4" d="M291.714,455.427c0,0-12.744-22.975-7.399-67.809l-17.268-27.098c0,0,17.678,11.863,18.912,17.208
	c0,0,9.465-24.536,11.31-26.452c0,0-12.954-16.305-10.487-29.46c0,0,8.615,22.354,13.913,24.667c0,0,11.165-18.5,19.387-20.556
	c0,0-38.233,46.799-26.517,85.888c0,0,25.948-12.456,35.269-22.41c0.246-0.263,0.481-0.524,0.703-0.784
	c8.633-10.073-16.444,29.805-34.944,31.861c0,0,7.863,29.601,14.21,34.944H291.714z"/>
<path fill="#00ABC4" d="M271.158,375.809c0,0-37.41,12.744-46.044-57.967c0,0,67.011,7.454,57.967,44.016
	c0,0-8.223-7.708-21.378-9.624C261.703,352.234,258.414,363.04,271.158,375.809z"/>
<path fill="#00ABC4" d="M307.813,327.152c0,0-8.866-28.723,45.085-33.73c0,0-7.142,50.783-34.739,43.102
	c0,0,6.039-6.082,7.784-16.042C325.943,320.482,317.803,317.745,307.813,327.152z"/>
<path fill="#00ABC4" d="M310.335,391.457c0,0-8.267-46.187,76.266-43.674c0,0-20.731,77.312-62.023,60.161
	c0,0,10.516-8.272,15.115-23.37C339.692,384.574,327.6,378.783,310.335,391.457z"/>
<path fill="#00ABC4" d="M282.121,327.876c0,0-22.643-5.366-4.796-43.323c0,0,31.073,24.708,15.111,40.102
	c0,0-1.686-6.418-7.644-11.495C284.792,313.161,279.767,317.518,282.121,327.876z"/>
</svg>
