<?xml version="1.0" encoding="utf-8"?>
<!-- Generator: Adobe Illustrator 16.0.3, SVG Export Plug-In . SVG Version: 6.00 Build 0)  -->
<!DOCTYPE svg PUBLIC "-//W3C//DTD SVG 1.1//EN" "http://www.w3.org/Graphics/SVG/1.1/DTD/svg11.dtd">
<svg version="1.1" id="Layer_1" xmlns="http://www.w3.org/2000/svg" xmlns:xlink="http://www.w3.org/1999/xlink" x="0px" y="0px"
	 width="175px" height="175px" viewBox="190 190 205 175" enable-background="new 0 0 175 175" xml:space="preserve">
<g id="Check">
	<g id="Arrow_28">
	</g>
	<g id="Checklist">
	</g>
</g>
<g id="Arrow_26">
	<path fill-rule="evenodd" clip-rule="evenodd" fill="#00ABC4" d="M195.649,321.372c3.189-0.796,6.096-1.763,9.079-2.221
		c11.65-1.784,23.282-3.866,35.001-4.96c11.848-1.104,23.801-1.746,35.693-1.561c20.593,0.317,41.194,1.119,61.753,2.326
		c12.64,0.74,25.218,2.588,37.817,3.984c5.666,0.627,11.318,1.365,17.005,2.517c-2.668,0.349-5.326,0.802-8.003,1.024
		c-8.993,0.743-17.629,3.047-25.979,6.291c-5.578,2.165-10.888,5.015-16.376,7.416c-0.978,0.429-2.33,0.449-3.387,0.181
		c-15.998-4.104-32.294-6.391-48.713-7.755c-9.821-0.815-19.685-1.146-29.531-1.659c-1.12-0.058-2.253,0.108-3.384,0.356
		c20.133,6.552,37.997,17.073,55.563,30.263c-4.617,4.352-9.042,8.289-13.192,12.498c-4.035,4.093-3.663,3.837-8.647,0.551
		c-11.277-7.437-22.595-14.868-34.335-21.528c-9.979-5.662-20.443-10.529-30.931-15.215c-9.431-4.214-19.185-7.704-28.792-11.527
		C196.151,322.299,196.087,322.057,195.649,321.372z"/>
	<path fill-rule="evenodd" clip-rule="evenodd" fill="#00ABC4" d="M241.887,306.54c-2.33-20.805,10.983-41.26,29.345-49.259
		c22.115-9.636,47.924-2.055,61.137,17.282c6.422,9.396,9.254,19.776,8.749,31.125c-0.088,2.014-0.644,2.529-2.831,2.354
		c-29.034-2.331-58.092-3.579-87.208-1.528C248.087,306.724,245.068,306.54,241.887,306.54z"/>
	<path fill-rule="evenodd" clip-rule="evenodd" fill="#00ABC4" d="M360.42,255.892c2.06,3.521,4.023,6.879,6.228,10.651
		c-8.749,3.69-17.38,7.332-26.019,10.979c-0.753-1.052-1.661-1.783-1.781-2.628c-0.147-1.016,0-2.607,0.665-3.127
		C346.309,266.452,353.237,261.307,360.42,255.892z"/>
	<path fill-rule="evenodd" clip-rule="evenodd" fill="#00ABC4" d="M244.752,272.846c-2.354,4.879-2.322,4.803-6.998,2.791
		c-6.102-2.623-12.269-5.095-18.394-7.663c-0.964-0.404-1.858-0.975-3.105-1.64c2.009-3.52,3.933-6.895,6.025-10.56
		C229.917,261.576,237.305,267.188,244.752,272.846z"/>
	<path fill-rule="evenodd" clip-rule="evenodd" fill="#00ABC4" d="M374.355,309.019c-8.799-1.101-17.354-2.218-25.926-3.202
		c-2.045-0.236-2.146-1.566-1.842-2.887c0.255-1.104,1.012-2.871,1.733-2.969c8.548-1.168,17.133-2.076,26.034-3.091
		C374.355,300.843,374.355,304.643,374.355,309.019z"/>
	<path fill-rule="evenodd" clip-rule="evenodd" fill="#00ABC4" d="M285.22,219.737c4.351,0,8.097,0,12.16,0
		c-0.508,4.656-0.967,9.077-1.48,13.494c-0.449,3.864-1.032,7.713-1.407,11.586c-0.168,1.739-0.361,3.033-2.612,2.938
		c-1.845-0.08-3.3,0.078-3.571-2.545C287.443,236.812,286.298,228.439,285.22,219.737z"/>
	<path fill-rule="evenodd" clip-rule="evenodd" fill="#00ABC4" d="M327.682,227.57c3.72,2.177,7.088,4.147,10.638,6.226
		c-5.432,7.251-10.585,14.326-15.971,21.218c-2.028,2.597-3.458-0.475-5.726-1.146C320.332,245.047,323.973,236.392,327.682,227.57z
		"/>
	<path fill-rule="evenodd" clip-rule="evenodd" fill="#00ABC4" d="M255.018,227.529c1.92,4.472,3.764,8.707,5.559,12.961
		c1.805,4.281,3.561,8.583,5.406,13.041c-0.754,0.542-1.52,1.074-2.27,1.631c-1.415,1.052-2.469,0.981-3.628-0.58
		c-4.777-6.436-9.685-12.774-14.524-19.161c-0.788-1.04-1.126-1.848,0.538-2.685C249.024,231.269,251.774,229.449,255.018,227.529z"
		/>
	<path fill-rule="evenodd" clip-rule="evenodd" fill="#00ABC4" d="M208.393,296.699c6.832,0.871,13.395,1.72,19.959,2.535
		c1.833,0.227,3.676,0.433,5.521,0.504c1.866,0.07,2.571,0.93,2.513,2.766c-0.051,1.629,0.117,3.075-2.207,3.289
		c-4.262,0.393-8.501,1.02-12.752,1.539c-4.25,0.519-8.503,1.025-13.034,1.572C208.393,304.814,208.393,300.987,208.393,296.699z"/>
	<path fill-rule="evenodd" clip-rule="evenodd" fill="#00ABC4" d="M338.281,251.647c1.451,1.536,2.673,2.832,4.135,4.385
		c-3.62,2.83-6.991,5.51-10.441,8.087c-0.319,0.237-1.258-0.03-1.677-0.358c-0.294-0.231-0.448-1.153-0.229-1.445
		C332.654,258.857,335.322,255.462,338.281,251.647z"/>
	<path fill-rule="evenodd" clip-rule="evenodd" fill="#00ABC4" d="M223.819,287.989c0.475-2.153,0.873-3.96,1.343-6.1
		c4.235,1.818,8.11,3.448,11.94,5.174c0.469,0.211,0.703,0.948,1.045,1.441c-0.604,0.298-1.234,0.896-1.806,0.846
		C232.315,288.988,228.303,288.494,223.819,287.989z"/>
	<path fill-rule="evenodd" clip-rule="evenodd" fill="#00ABC4" d="M312.211,236.778c-1.667,4.019-3.202,7.837-4.864,11.599
		c-0.24,0.545-1.091,0.818-1.66,1.219c-0.261-0.718-0.794-1.457-0.739-2.148c0.267-3.275,0.776-6.533,1.035-9.811
		c0.16-2.034,0.957-2.536,2.814-1.784C309.764,236.245,310.824,236.412,312.211,236.778z"/>
	<path fill-rule="evenodd" clip-rule="evenodd" fill="#00ABC4" d="M357.459,281.977c0.524,2.112,0.94,3.778,1.489,5.982
		c-4.522,0.523-8.796,1.047-13.079,1.465c-0.378,0.038-1.19-0.655-1.157-0.936c0.061-0.534,0.473-1.271,0.936-1.476
		C349.495,285.304,353.386,283.698,357.459,281.977z"/>
	<path fill-rule="evenodd" clip-rule="evenodd" fill="#00ABC4" d="M240.361,256.119c1.139-1.263,2.073-2.46,3.198-3.435
		c0.308-0.269,1.472-0.103,1.764,0.256c2.388,2.909,4.715,5.873,6.913,8.928c0.362,0.501-0.002,1.525-0.031,2.308
		c-0.654-0.153-1.443-0.123-1.938-0.49C247.01,261.272,243.816,258.776,240.361,256.119z"/>
	<path fill-rule="evenodd" clip-rule="evenodd" fill="#00ABC4" d="M270.593,236.773c5.856-1.324,5.824-1.321,6.402,4.158
		c0.236,2.229,0.726,4.432,0.932,6.661c0.057,0.612-0.492,1.28-0.763,1.925c-0.626-0.325-1.607-0.498-1.823-1.001
		C273.706,244.716,272.22,240.851,270.593,236.773z"/>
	<g>
		<polygon fill="#FFFFFF" points="299.303,311.666 299.303,292.715 307.889,292.715 291.298,273.879 274.712,292.715 
			283.297,292.715 283.297,311.666 		"/>
	</g>
</g>
</svg>
