<?xml version="1.0" encoding="utf-8"?>
<!-- Generator: Adobe Illustrator 16.0.3, SVG Export Plug-In . SVG Version: 6.00 Build 0)  -->
<!DOCTYPE svg PUBLIC "-//W3C//DTD SVG 1.1//EN" "http://www.w3.org/Graphics/SVG/1.1/DTD/svg11.dtd">
<svg version="1.1" id="Layer_1" xmlns="http://www.w3.org/2000/svg" xmlns:xlink="http://www.w3.org/1999/xlink" x="0px" y="0px"
	 width="175px" height="175px" viewBox="220 250 175 195" enable-background="new 0 0 175 175" xml:space="preserve">
<path fill="#00ABC4" d="M226.456,384.904c0,0,85.266,5.436,99.896-76.071h-20.481l40.125-37.2l39.708,35.945h-20.063
	C365.641,307.578,353.52,419.179,226.456,384.904z"/>
<polygon fill="#00ABC4" points="226.038,392.427 247.354,396.188 247.354,443 226.038,443 "/>
<rect x="257.387" y="396.188" fill="#00ABC4" width="22.57" height="46.813"/>
<path fill="#00ABC4" d="M288.734,396.188V443h22.571v-53.734C311.306,389.266,297.512,396.188,288.734,396.188z"/>
<path fill="#00ABC4" d="M320.918,384.485V443h21.317v-72.934C342.235,370.066,328.859,382.814,320.918,384.485z"/>
<path fill="#00ABC4" d="M352.265,357.734V443h22.991V311.757h-3.346C371.91,311.757,365.641,338.09,352.265,357.734z"/>
</svg>
